<svg version="1.2" xmlns="http://www.w3.org/2000/svg" viewBox="0 0 512 512" width="30" height="30">
	<style>
		.s0 { fill: #ff0000 } 
	</style>
	<path class="s0" d="m256 512c-67.9 0-133.01-26.97-181.02-74.98-48.01-48.01-74.98-113.12-74.98-181.02 0-67.9 26.97-133.01 74.98-181.02 48.01-48.01 113.12-74.98 181.02-74.98 67.9 0 133.01 26.97 181.02 74.98 48.01 48.01 74.98 113.12 74.98 181.02 0 67.9-26.97 133.01-74.98 181.02-48.01 48.01-113.12 74.98-181.02 74.98zm0-192c-8.49 0-16.63 3.37-22.63 9.37-6 6-9.37 14.14-9.37 22.63 0 8.49 3.37 16.63 9.37 22.63 6 6 14.14 9.37 22.63 9.37 8.49 0 16.63-3.37 22.63-9.37 6-6 9.37-14.14 9.37-22.63 0-8.49-3.37-16.63-9.37-22.63-6-6-14.14-9.37-22.63-9.37zm0-192c-18.2 0-32.7 15.5-31.4 33.7l7.4 104c0.9 12.6 11.4 22.3 23.9 22.3 12.6 0 23-9.7 23.9-22.3l7.4-104c1.3-18.2-13.1-33.7-31.4-33.7z"/>
</svg>